<?xml version="1.0" encoding="UTF-8" standalone="no"?>
<!-- Created with Inkscape (http://www.inkscape.org/) -->

<svg
   xmlns:osb="http://www.openswatchbook.org/uri/2009/osb"
   xmlns:dc="http://purl.org/dc/elements/1.1/"
   xmlns:cc="http://creativecommons.org/ns#"
   xmlns:rdf="http://www.w3.org/1999/02/22-rdf-syntax-ns#"
   xmlns:svg="http://www.w3.org/2000/svg"
   xmlns="http://www.w3.org/2000/svg"
   xmlns:xlink="http://www.w3.org/1999/xlink"
   xmlns:sodipodi="http://sodipodi.sourceforge.net/DTD/sodipodi-0.dtd"
   xmlns:inkscape="http://www.inkscape.org/namespaces/inkscape"
   sodipodi:docname="symbol_eye_opened.svg"
   inkscape:version="0.48.4 r9939"
   version="1.1"
   id="svg2"
   height="453.5433"
   width="453.5433">
  <defs
     id="defs4">
    <linearGradient
       id="linearGradient3848"
       osb:paint="solid">
      <stop
         style="stop-color:#00ffff;stop-opacity:1;"
         offset="0"
         id="stop3850" />
    </linearGradient>
    <linearGradient
       id="linearGradient3838"
       osb:paint="solid">
      <stop
         style="stop-color:#00ffff;stop-opacity:1;"
         offset="0"
         id="stop3840" />
    </linearGradient>
    <linearGradient
       id="linearGradient3832"
       osb:paint="solid">
      <stop
         style="stop-color:#ff0000;stop-opacity:0;"
         offset="0"
         id="stop3834" />
    </linearGradient>
    <linearGradient
       inkscape:collect="always"
       xlink:href="#linearGradient3848"
       id="linearGradient3865"
       gradientUnits="userSpaceOnUse"
       gradientTransform="matrix(1.8722283,0,0,2.0553812,-271.93397,-682.29845)"
       x1="133.84157"
       y1="808.29816"
       x2="398.90039"
       y2="808.29816" />
  </defs>
  <sodipodi:namedview
     id="base"
     pagecolor="#ffffff"
     bordercolor="#666666"
     borderopacity="1.0"
     gridtolerance="10000"
     guidetolerance="10"
     objecttolerance="10"
     inkscape:pageopacity="0"
     inkscape:pageshadow="2"
     inkscape:zoom="1.0074671"
     inkscape:cx="243.36874"
     inkscape:cy="245.13466"
     inkscape:document-units="mm"
     inkscape:current-layer="layer1"
     showgrid="false"
     inkscape:window-width="858"
     inkscape:window-height="607"
     inkscape:window-x="0"
     inkscape:window-y="71"
     inkscape:window-maximized="0"
     units="mm"
     inkscape:snap-midpoints="true" />
  <metadata
     id="metadata7">
    <rdf:RDF>
      <cc:Work
         rdf:about="">
        <dc:format>image/svg+xml</dc:format>
        <dc:type
           rdf:resource="http://purl.org/dc/dcmitype/StillImage" />
        <dc:title />
      </cc:Work>
    </rdf:RDF>
  </metadata>
  <g
     inkscape:label="Пласт 1"
     inkscape:groupmode="layer"
     id="layer1"
     transform="translate(0,-598.81889)">
    <path
       style="fill:#00ffff;fill-opacity:0;stroke:url(#linearGradient3865);stroke-width:28.5644455;stroke-linecap:square;stroke-linejoin:miter;stroke-miterlimit:4;stroke-dasharray:none"
       d="m 226.78933,730.93569 c -90.12261,0 -169.047338,48.05162 -212.507107,119.92835 43.459769,71.87674 122.384497,119.8931 212.507107,119.8931 90.1226,0 169.012,-48.01636 212.47176,-119.8931 C 395.80133,778.98731 316.91193,730.93569 226.78933,730.93569 z"
       id="path3846"
       inkscape:connector-curvature="0" />
    <path
       style="fill:#00ffff;fill-opacity:0;stroke:#00ffff;stroke-width:28.5644455;stroke-linecap:square;stroke-linejoin:miter;stroke-miterlimit:4;stroke-opacity:1;stroke-dasharray:none"
       d="m 221.36382,682.41854 0.31801,39.64632 c 0.0941,-9.9e-4 0.18855,0.001 0.28268,0 l -0.60069,-39.64632 z m 108.26766,20.81255 -14.31083,35.44141 c 0.0696,0.027 0.14242,0.0789 0.21201,0.10595 l 14.09882,-35.54741 z m -216.28799,1.41342 15.65358,36.89017 c 0.0728,-0.031 0.13923,-0.0752 0.21202,-0.10596 l -15.8656,-36.78421 z m 308.37204,59.22213 -25.97151,26.46622 c 0.0593,0.0583 0.0821,0.11836 0.14134,0.17668 l 25.83017,-26.6429 z m -399.678718,2.61483 29.187041,28.69234 c 0.06274,-0.0658 0.149187,-0.11092 0.212012,-0.17668 L 22.036812,766.48147 z"
       id="path5616"
       inkscape:connector-curvature="0" />
    <path
       sodipodi:type="arc"
       style="fill:#00ffff;fill-opacity:0;stroke:#00ffff;stroke-width:14.50448418;stroke-miterlimit:4;stroke-opacity:1;stroke-dasharray:none"
       id="path5629"
       sodipodi:cx="-125.96854"
       sodipodi:cy="715.13391"
       sodipodi:rx="49.862549"
       sodipodi:ry="48.550377"
       d="m -76.105988,715.13391 c 0,26.81363 -22.324223,48.55038 -49.862552,48.55038 -27.53832,0 -49.86255,-21.73675 -49.86255,-48.55038 0,-26.81363 22.32423,-48.55038 49.86255,-48.55038 27.538329,0 49.862552,21.73675 49.862552,48.55038 z"
       transform="matrix(1.653215,0,0,1.6978963,430.87504,-363.66227)" />
    <path
       style="fill:none;stroke:#008000;stroke-width:27.77417564;stroke-linecap:butt;stroke-linejoin:miter;stroke-miterlimit:4;stroke-opacity:1;stroke-dasharray:none"
       d="m 262.60366,798.35427 -42.0571,88.12072 -26.51426,-58.23623"
       id="path3919"
       inkscape:connector-curvature="0" />
  </g>
</svg>
